<mxfile host="app.diagrams.net" modified="2024-02-19T17:38:57.753Z" agent="Mozilla/5.0 (X11; Linux x86_64) AppleWebKit/537.36 (KHTML, like Gecko) Chrome/121.0.0.0 Safari/537.36" etag="oyOuXx_a3FEls_z-QRHR" version="23.1.5" type="github">
  <diagram name="Page-1" id="ydZV6BzUIToyZjkmvtM8">
    <mxGraphModel dx="1022" dy="1103" grid="1" gridSize="10" guides="1" tooltips="1" connect="1" arrows="1" fold="1" page="1" pageScale="1" pageWidth="850" pageHeight="1100" math="0" shadow="0">
      <root>
        <mxCell id="0" />
        <mxCell id="1" parent="0" />
        <mxCell id="DFZf6RPH-qYo11cTawF6-1" value="" style="ellipse;whiteSpace=wrap;html=1;aspect=fixed;" vertex="1" parent="1">
          <mxGeometry x="175" y="90" width="80" height="80" as="geometry" />
        </mxCell>
        <mxCell id="DFZf6RPH-qYo11cTawF6-2" value="" style="endArrow=classic;html=1;rounded=0;" edge="1" parent="1" source="DFZf6RPH-qYo11cTawF6-1">
          <mxGeometry width="50" height="50" relative="1" as="geometry">
            <mxPoint x="395" y="160" as="sourcePoint" />
            <mxPoint x="395" y="130" as="targetPoint" />
          </mxGeometry>
        </mxCell>
        <mxCell id="DFZf6RPH-qYo11cTawF6-3" value="" style="endArrow=classic;html=1;rounded=0;" edge="1" parent="1" target="DFZf6RPH-qYo11cTawF6-1">
          <mxGeometry width="50" height="50" relative="1" as="geometry">
            <mxPoint x="40" y="40" as="sourcePoint" />
            <mxPoint x="400" as="targetPoint" />
          </mxGeometry>
        </mxCell>
        <mxCell id="DFZf6RPH-qYo11cTawF6-4" value="" style="endArrow=classic;html=1;rounded=0;" edge="1" parent="1" source="DFZf6RPH-qYo11cTawF6-1">
          <mxGeometry width="50" height="50" relative="1" as="geometry">
            <mxPoint x="80" y="160" as="sourcePoint" />
            <mxPoint x="40" y="130" as="targetPoint" />
          </mxGeometry>
        </mxCell>
      </root>
    </mxGraphModel>
  </diagram>
</mxfile>
